# xmcd
#
# Track frame offsets: 
#        150
#        20675
#        34703
#        49773
#        68600
#        82248
#        97698
#        113075
#        131145
#        147125
#        161300
#        177798
#        192048
#        205625
#        219045
#        234725
#        245450
#        262100
#
# Disc length: 3616 seconds
#
# Revision: 5
# Processed by: cddbd v1.5.2PL0 Copyright (c) Steve Scherf et al.
# Submitted via: ExactAudioCopy v1.3
#
DISCID=ee0e1e12
DTITLE=Edith Piaf - Die großen Erfolge
DYEAR=1992
DGENRE=Chanson
TTITLE0=Milord
TTITLE1=La Vie En Rose
TTITLE2=Padam... Padam
TTITLE3=Les Trois Cloches
TTITLE4=C'Est L'Amour
TTITLE5=Sous Le Ciel De Paris
TTITLE6=Mon Dieu
TTITLE7=Jerusalem
TTITLE8=Exodus
TTITLE9=Bravo Pour Le Clown
TTITLE10=L'Accordéoniste
TTITLE11=Jezebel
TTITLE12=C'Est à Hambourg
TTITLE13=La Foule
TTITLE14=Hymne A 'Amour
TTITLE15=Non, Je Ne Regrette Rien
TTITLE16=Un Grand Amour Qui S'Scheye
TTITLE17=La Goualante Du Pauvre Jean
EXTD=
EXTT0=
EXTT1=
EXTT2=
EXTT3=
EXTT4=
EXTT5=
EXTT6=
EXTT7=
EXTT8=
EXTT9=
EXTT10=
EXTT11=
EXTT12=
EXTT13=
EXTT14=
EXTT15=
EXTT16=
EXTT17=
PLAYORDER=
